<mxfile host="app.diagrams.net" modified="2023-07-08T07:55:04.169Z" agent="Mozilla/5.0 (Windows NT 10.0; Win64; x64) AppleWebKit/537.36 (KHTML, like Gecko) Chrome/114.0.0.0 Safari/537.36" version="21.6.1" etag="TT7awqEM-4SwngDBjOXI" type="github">
  <diagram name="第 1 页" id="9e94xMel0PH_fhrqx-Ln">
    <mxGraphModel>
      <root>
        <mxCell id="0" />
        <mxCell id="1" parent="0" />
      </root>
    </mxGraphModel>
  </diagram>
</mxfile>
